<svg width="112" height="112" viewBox="0 0 112 112" fill="none" xmlns="http://www.w3.org/2000/svg">
<path d="M107.897 88.102L72.0568 52.2573L65.4722 58.7813L42.0922 35.4013V15.9693L14.6008 0.116667L0.204167 14.5087L16.0615 42H35.4935L58.8408 65.3473L52.1628 71.96L88.0962 107.898C90.7422 110.539 94.2562 112 97.9988 112C101.742 112 105.256 110.544 107.897 107.898C113.357 102.438 113.357 93.562 107.897 88.102ZM32.7588 32.6667H21.4562L11.8708 16.0487L16.1408 11.774L32.7635 21.364L32.7588 32.6667ZM101.298 101.299C99.5388 103.068 96.4635 103.068 94.6995 101.299L65.3928 71.9973L72.0242 65.4313L101.293 94.7007C103.113 96.5207 103.113 99.4793 101.293 101.299H101.298ZM51.3322 32.0273V11.0787C57.7208 4.27933 66.7648 0 76.8122 0C82.3235 0 87.6295 1.26933 92.5902 3.78467L98.3348 6.69667L75.8462 29.1807C74.9642 30.0627 74.4788 31.234 74.4788 32.48C74.4788 33.726 74.9642 34.8973 75.8415 35.7747C77.6102 37.5433 80.6808 37.5387 82.4448 35.7747L104.952 13.2673L107.883 18.9327C110.487 23.9587 111.807 29.3627 111.807 34.9953C111.807 46.8953 105.829 57.4093 96.7295 63.7327L89.9768 56.98C97.4482 52.486 102.474 44.324 102.474 34.9907C102.474 33.1333 102.278 31.3087 101.886 29.526L89.0435 42.3687C83.5835 47.824 74.7028 47.8287 69.2428 42.3687C66.6015 39.732 65.1408 36.2133 65.1408 32.4707C65.1408 28.728 66.5968 25.214 69.2428 22.5727L81.9688 9.84667C80.2795 9.50133 78.5622 9.324 76.8122 9.324C63.6662 9.324 52.8115 19.264 51.3322 32.018V32.0273ZM42.7968 75.796L49.3955 82.3947L23.8922 107.898C21.2508 110.539 17.7322 112 13.9942 112C10.2562 112 6.7375 110.544 4.0915 107.898C-1.36383 102.438 -1.36383 93.562 4.0915 88.102L36.2402 55.9533L42.8388 62.552L10.6902 94.7007C8.87017 96.5207 8.87017 99.4793 10.6902 101.299C12.4542 103.068 15.5295 103.068 17.2888 101.299L42.7968 75.796Z" fill="#6D906B"/>
</svg>
