<svg width="113" height="112" viewBox="0 0 113 112" fill="none" xmlns="http://www.w3.org/2000/svg">
<path d="M7.31267 16.3333C7.31267 9.88867 12.5347 4.66667 18.9793 4.66667C25.424 4.66667 30.646 9.88867 30.646 16.3333C30.646 22.778 25.424 28 18.9793 28C12.5347 28 7.31267 22.778 7.31267 16.3333ZM14.3127 79.3333V93.3333L9.65533 112H0L5.12867 91.546L5.04467 79.3333H4.97933V46.6667C4.97933 38.948 11.2607 32.6667 18.9793 32.6667H42.8727L57.3347 19.32C60.998 8.12 71.5307 0 83.9393 0C99.3813 0 111.939 12.558 111.939 28C111.939 43.442 99.3813 56 83.9393 56C70.168 56 58.716 45.9993 56.3967 32.886L46.522 42H32.984V70H51.6507V87.3927L42.3173 93.87V79.338L14.3127 79.3333ZM65.268 28C65.268 38.2947 73.64 46.6667 83.9347 46.6667C94.2293 46.6667 102.601 38.2947 102.601 28C102.601 17.7053 94.2293 9.33333 83.9347 9.33333C73.64 9.33333 65.268 17.7053 65.268 28ZM23.6413 42H18.9747C16.3987 42 14.308 44.0907 14.308 46.6667V70H23.6413V42ZM32.55 112H47.796L112.313 67.2327V56.6533L32.55 112Z" fill="#6D906B"/>
</svg>
