<svg width="84" height="112" viewBox="0 0 84 112" fill="none" xmlns="http://www.w3.org/2000/svg">
<path d="M70 37.3333H60.62L60.5313 28H70V0H14V28H23.3333V37.3333H14C10.287 37.3333 6.72601 38.8083 4.10051 41.4338C1.475 44.0593 0 47.6203 0 51.3333V112H84V51.3333C84 47.6203 82.525 44.0593 79.8995 41.4338C77.274 38.8083 73.713 37.3333 70 37.3333ZM23.3333 9.33333H60.6667V18.6667H23.3333V9.33333ZM74.6667 102.667H9.33333V51.3333C9.33333 50.0957 9.825 48.9087 10.7002 48.0335C11.5753 47.1583 12.7623 46.6667 14 46.6667H32.6667V28H51.1933L51.38 46.6667H70C71.2377 46.6667 72.4247 47.1583 73.2998 48.0335C74.175 48.9087 74.6667 50.0957 74.6667 51.3333V102.667ZM46.6667 70H56V79.3333H46.6667V88.6667H37.3333V79.3333H28V70H37.3333V60.6667H46.6667V70Z" fill="#6D906B"/>
</svg>
