<svg width="112" height="112" viewBox="0 0 112 112" fill="none" xmlns="http://www.w3.org/2000/svg">
<path d="M97.9393 56.644C97.3093 35.574 85.148 28 74.6667 28C69.944 28 64.8713 29.5353 60.6667 33.1427V30.3333C60.6667 7.94267 48.0993 0 37.3333 0C26.852 0 14.6907 7.574 14.0607 28.644C6.00133 30.7113 0 37.9727 0 46.6667C0 59.8873 13.7947 74.06 15.3673 75.6327L18.6667 78.932L21.966 75.6327C23.5387 74.06 37.3333 59.8827 37.3333 46.6667C37.3333 38.0147 31.388 30.7907 23.3893 28.6813C23.996 10.8127 34.146 9.33333 37.3333 9.33333C40.6187 9.33333 51.3333 10.85 51.3333 30.3333V112H60.6667V58.3333C60.6667 38.85 71.3813 37.3333 74.6667 37.3333C77.854 37.3333 87.9993 38.8127 88.6107 56.6813C80.612 58.7907 74.6667 66.0147 74.6667 74.6667C74.6667 87.8873 88.4613 102.06 90.034 103.633L93.3333 106.932L96.6327 103.633C98.2053 102.06 112 87.8827 112 74.6667C112 65.9727 105.999 58.7113 97.9393 56.644ZM28 46.6667C28 52.7053 22.736 60.4473 18.662 65.3613C14.5927 60.4567 9.33333 52.7287 9.33333 46.6667C9.33333 41.5193 13.5193 37.3333 18.6667 37.3333C23.814 37.3333 28 41.5193 28 46.6667ZM93.3287 93.3613C89.2593 88.4567 84 80.7287 84 74.6667C84 69.5193 88.186 65.3333 93.3333 65.3333C98.4807 65.3333 102.667 69.5193 102.667 74.6667C102.667 80.7053 97.4027 88.4473 93.3287 93.3613Z" fill="#6D906B"/>
</svg>
