<svg width="112" height="112" viewBox="0 0 112 112" fill="none" xmlns="http://www.w3.org/2000/svg">
<path d="M37.3333 60.6667H0V51.3333H37.3333V60.6667ZM97.6033 51.828C99.9206 48.911 101.506 45.4815 102.226 41.8263C102.947 38.1712 102.781 34.3967 101.744 30.8185C100.707 27.2403 98.8283 23.9625 96.265 21.2591C93.7016 18.5558 90.5282 16.5055 87.0101 15.2798C83.4921 14.0542 79.7317 13.6887 76.0434 14.2139C72.3552 14.7392 68.8463 16.14 65.8103 18.2991C62.7744 20.4582 60.2995 23.3129 58.5927 26.6244C56.886 29.9358 55.9969 33.6079 56 37.3333V42H65.3333V37.3333C65.3333 34.5644 66.1544 31.8576 67.6928 29.5553C69.2311 27.2531 71.4176 25.4586 73.9758 24.399C76.5339 23.3394 79.3489 23.0621 82.0646 23.6023C84.7803 24.1425 87.2749 25.4759 89.2328 27.4338C91.1908 29.3918 92.5241 31.8863 93.0643 34.6021C93.6045 37.3178 93.3273 40.1327 92.2676 42.6909C91.208 45.2491 89.4136 47.4356 87.1113 48.9739C84.809 50.5122 82.1023 51.3333 79.3333 51.3333H46.6667V60.6667H93.3333C95.1793 60.6667 96.9838 61.2141 98.5187 62.2396C100.054 63.2652 101.25 64.7228 101.956 66.4283C102.663 68.1337 102.847 70.0104 102.487 71.8208C102.127 73.6313 101.238 75.2944 99.933 76.5997C98.6277 77.9049 96.9647 78.7939 95.1542 79.154C93.3437 79.5141 91.4671 79.3293 89.7616 78.6229C88.0562 77.9165 86.5985 76.7202 85.5729 75.1853C84.5474 73.6505 84 71.846 84 70H74.6667C74.6667 73.5086 75.6556 76.9462 77.52 79.9186C79.3844 82.8909 82.0487 85.2776 85.2075 86.8049C88.3662 88.3323 91.8915 88.9385 95.379 88.5539C98.8665 88.1694 102.175 86.8098 104.925 84.631C107.675 82.4521 109.756 79.5423 110.928 76.2352C112.1 72.9281 112.316 69.3576 111.552 65.9333C110.787 62.5089 109.073 59.3692 106.606 56.8744C104.139 54.3796 101.019 52.6306 97.6033 51.828ZM51.3333 74.6667H0V84H51.3333C53.1793 84 54.9838 84.5474 56.5187 85.5729C58.0535 86.5985 59.2498 88.0562 59.9562 89.7616C60.6626 91.4671 60.8475 93.3437 60.4873 95.1542C60.1272 96.9647 59.2383 98.6277 57.933 99.933C56.6277 101.238 54.9647 102.127 53.1542 102.487C51.3437 102.847 49.4671 102.663 47.7616 101.956C46.0562 101.25 44.5985 100.054 43.5729 98.5187C42.5474 96.9838 42 95.1793 42 93.3333H32.6667C32.6667 97.0252 33.7614 100.634 35.8126 103.704C37.8637 106.774 40.779 109.166 44.1899 110.579C47.6008 111.992 51.354 112.362 54.975 111.641C58.596 110.921 61.9221 109.143 64.5327 106.533C67.1432 103.922 68.9211 100.596 69.6413 96.975C70.3616 93.354 69.9919 89.6008 68.5791 86.1899C67.1662 82.779 64.7737 79.8637 61.704 77.8126C58.6343 75.7614 55.0252 74.6667 51.3333 74.6667ZM51.3333 18.6667C51.3333 13.716 49.3667 8.96802 45.866 5.46734C42.3653 1.96666 37.6174 0 32.6667 0C27.716 0 22.968 1.96666 19.4673 5.46734C15.9667 8.96802 14 13.716 14 18.6667H23.3333C23.3333 16.8207 23.8807 15.0162 24.9063 13.4813C25.9318 11.9465 27.3895 10.7502 29.095 10.0438C30.8004 9.33737 32.677 9.15254 34.4875 9.51267C36.298 9.8728 37.961 10.7617 39.2663 12.067C40.5716 13.3723 41.4605 15.0353 41.8207 16.8458C42.1808 18.6563 41.996 20.5329 41.2895 22.2384C40.5831 23.9438 39.3868 25.4015 37.852 26.427C36.3171 27.4526 34.5126 28 32.6667 28H0V37.3333H32.6667C37.6174 37.3333 42.3653 35.3667 45.866 31.866C49.3667 28.3653 51.3333 23.6174 51.3333 18.6667Z" fill="#6D906B"/>
</svg>
