<svg width="28" height="28" viewBox="0 0 28 28" fill="none" xmlns="http://www.w3.org/2000/svg">
<path d="M2.33187 7.00154C1.71342 7.00154 1.1203 7.24722 0.68299 7.68453C0.245679 8.12184 0 8.71497 0 9.33342L0 18.6772C0 19.2957 0.245679 19.8888 0.68299 20.3261C1.1203 20.7634 1.71342 21.0091 2.33187 21.0091H5.5965L13.9912 28.0001V0.0175781L5.5965 7.00154H2.33187ZM11.6594 4.9938V23.0204L6.4418 18.6807H2.33187V9.33692H6.4418L11.6594 4.9938Z" fill="#F5F5F5"/>
<path d="M23.3189 14.0089C23.3186 12.462 22.7046 10.9785 21.6116 9.88376C20.5187 8.78907 19.0361 8.1727 17.4892 8.16992H16.3232V10.5018H17.4892C18.4184 10.5018 19.3096 10.8709 19.9666 11.528C20.6237 12.185 20.9928 13.0762 20.9928 14.0054C20.9928 14.9347 20.6237 15.8258 19.9666 16.4829C19.3096 17.1399 18.4184 17.5091 17.4892 17.5091H16.3232V19.841H17.4892C19.0348 19.8379 20.5161 19.2224 21.6088 18.1292C22.7015 17.0361 23.3164 15.5545 23.3189 14.0089Z" fill="#F5F5F5"/>
<path d="M17.4892 3.49723H16.3232V5.8291H17.4892C19.6575 5.8291 21.737 6.69045 23.2702 8.22367C24.8034 9.75688 25.6647 11.8364 25.6647 14.0047C25.6647 16.1729 24.8034 18.2524 23.2702 19.7856C21.737 21.3189 19.6575 22.1802 17.4892 22.1802H16.3232V24.5121H17.4892C20.2769 24.5121 22.9503 23.4047 24.9215 21.4335C26.8927 19.4623 28.0001 16.7888 28.0001 14.0012C28.0001 11.2135 26.8927 8.53999 24.9215 6.56881C22.9503 4.59763 20.2769 3.49023 17.4892 3.49023V3.49723Z" fill="#F5F5F5"/>
</svg>
