<svg width="98" height="112" viewBox="0 0 98 112" fill="none" xmlns="http://www.w3.org/2000/svg">
<path d="M21 39.6667L11.6667 35L21 30.3333L25.6667 21L30.3333 30.3333L39.6667 35L30.3333 39.6667L25.6667 49L21 39.6667ZM15.554 15.554L23.3333 11.6667L15.554 7.77933L11.6667 0L7.77933 7.77933L0 11.6667L7.77933 15.554L11.6667 23.3333L15.554 15.554ZM97.8507 44.3333C97.8553 19.8893 79.0767 0 56 0V0.028C55.9487 0.028 55.9067 0 55.8553 0C46.214 0 37.352 3.50467 30.268 9.324C30.2727 9.338 30.2773 9.34733 30.282 9.35667L34.5707 17.9293C40.2827 12.5907 47.712 9.32867 55.8553 9.32867C55.9067 9.32867 55.9487 9.30067 56 9.30067V9.32867C73.934 9.32867 88.522 25.0273 88.522 44.3287C88.522 63.63 73.934 79.3287 56 79.3287V79.3567C55.9487 79.3567 55.9067 79.3287 55.8553 79.3287C41.7293 79.3287 29.708 69.566 25.2327 55.9953H15.5213C19.7587 72.408 32.6667 85.064 48.6967 88.0087L46.424 100.52C45.3367 106.498 49.9287 112 56.0047 112C62.0807 112 66.6727 106.498 65.5853 100.52L63.2987 87.948C82.908 84.2753 97.86 66.1407 97.86 44.3333H97.8507Z" fill="#6D906B"/>
</svg>
