<svg width="24" height="28" viewBox="0 0 24 28" fill="none" xmlns="http://www.w3.org/2000/svg">
<path d="M13.9835 27.98C10.2766 27.976 6.72269 26.5017 4.10151 23.8805C1.48033 21.2593 0.00599426 17.7054 0.00198496 13.9985C-0.17628 3.56359 11.6894 -3.46096 20.7308 1.77512L22.5402 2.77946L20.7424 3.80477C12.9361 8.10176 13.507 19.9651 21.6745 23.5024L23.5632 24.3541L21.8539 25.5262C19.5393 27.1218 16.7949 27.9775 13.9835 27.98ZM13.9835 2.3472C10.8944 2.35059 7.93287 3.57922 5.74857 5.76352C3.56426 7.94783 2.33563 10.9094 2.33224 13.9985C2.15165 22.2907 11.3771 28.213 18.8246 24.5802C17.081 23.41 15.6357 21.8479 14.6042 20.0189C13.5727 18.1899 12.9838 16.1448 12.8846 14.0473C12.7854 11.9498 13.1786 9.85827 14.0329 7.94006C14.8871 6.02186 16.1786 4.33031 17.804 3.00083C16.5774 2.56559 15.285 2.3445 13.9835 2.3472Z" fill="#F5F5F5"/>
</svg>
