<svg width="94" height="112" viewBox="0 0 94 112" fill="none" xmlns="http://www.w3.org/2000/svg">
<path d="M46.6913 112C37.4566 112 28.4293 109.261 20.751 104.131C13.0727 99.0001 7.08814 91.7078 3.55419 83.1761C0.0202481 74.6443 -0.904407 65.2562 0.897158 56.199C2.69872 47.1417 7.14559 38.8221 13.6754 32.2921L46.6913 0L79.6698 32.2548C88.4264 41.0162 93.3485 52.8944 93.3555 65.2815C93.3625 77.6687 88.4538 89.5524 79.7071 98.3238C75.3813 102.673 70.236 106.121 64.5688 108.468C58.9017 110.816 52.8253 112.016 46.6913 112ZM46.6913 13.0644L20.2403 38.9317C15.0255 44.1615 11.4781 50.8199 10.0463 58.0653C8.61461 65.3107 9.36284 72.8179 12.1965 79.6382C15.0301 86.4584 19.8219 92.2856 25.9664 96.3833C32.1109 100.481 39.3322 102.665 46.7176 102.66C54.1031 102.655 61.3213 100.46 67.46 96.354C73.5987 92.2476 78.3823 86.4137 81.2063 79.5894C84.0302 72.7651 84.7679 65.2569 83.3259 58.0135C81.8839 50.7702 78.3271 44.1168 73.1049 38.8943L46.6913 13.0644ZM32.6837 46.6312C31.7602 46.6312 30.8575 46.905 30.0896 47.4181C29.3218 47.9311 28.7233 48.6604 28.3699 49.5136C28.0165 50.3667 27.9241 51.3056 28.1042 52.2113C28.2844 53.117 28.7291 53.949 29.3821 54.602C30.0351 55.255 30.8671 55.6997 31.7728 55.8799C32.6785 56.06 33.6174 55.9675 34.4705 55.6142C35.3237 55.2607 36.0529 54.6623 36.566 53.8944C37.0791 53.1266 37.3529 52.2239 37.3529 51.3004C37.3529 50.062 36.861 48.8744 35.9853 47.9988C35.1097 47.1231 33.9221 46.6312 32.6837 46.6312ZM60.6988 74.6463C59.7754 74.6463 58.8726 74.9202 58.1048 75.4332C57.3369 75.9463 56.7385 76.6755 56.3851 77.5287C56.0317 78.3819 55.9392 79.3207 56.1194 80.2264C56.2995 81.1322 56.7442 81.9641 57.3972 82.6171C58.0502 83.2701 58.8822 83.7148 59.7879 83.895C60.6937 84.0751 61.6325 83.9827 62.4857 83.6293C63.3389 83.2759 64.0681 82.6774 64.5811 81.9096C65.0942 81.1417 65.368 80.239 65.368 79.3155C65.368 78.0772 64.8761 76.8895 64.0005 76.0139C63.1248 75.1383 61.9372 74.6463 60.6988 74.6463ZM30.0409 83.9847H40.9295L63.3416 46.6312H52.4531L30.0409 83.9847Z" fill="#6D906B"/>
</svg>
