<svg width="112" height="112" viewBox="0 0 112 112" fill="none" xmlns="http://www.w3.org/2000/svg">
<path d="M111.815 41.7073L111.558 37.2431L107.085 37.3131C75.7939 37.7982 62.019 57.0542 55.9782 72.793C49.9374 57.0496 36.1625 37.7982 4.8715 37.3131L0.398029 37.2431L0.141469 41.7073C-0.880105 59.4239 3.63535 73.3808 13.5479 83.1907C25.8394 95.3469 42.9496 97.5813 51.3135 97.9032V112H60.6429V97.9032C69.0068 97.5813 86.1123 95.3423 98.4085 83.1907C108.321 73.3808 112.837 59.4286 111.815 41.7073ZM20.0692 76.5154C13.0068 69.5044 9.41027 59.5545 9.33097 46.8805C41.2283 49.7726 48.9298 77.0985 50.763 88.5225C43.4767 88.1026 29.6225 85.9988 20.0692 76.5154ZM61.1747 88.5225C62.966 77.1079 70.5928 49.7633 102.625 46.8805C102.546 59.5545 98.9496 69.5044 91.8872 76.5154C82.3246 86.0035 68.461 88.1026 61.1747 88.5225ZM39.6517 25.6513L33.0558 19.0554L49.3823 2.72886C53.0161 -0.909621 58.9403 -0.909621 62.5741 2.72886L78.9007 19.0554L72.3047 25.6513L60.6429 13.9895V46.6426H51.3135V13.9895L39.6517 25.6513Z" fill="#6D906B"/>
</svg>
