<svg width="112" height="112" viewBox="0 0 112 112" fill="none" xmlns="http://www.w3.org/2000/svg">
<path d="M0 5.72111C0 5.72111 17.108 -6.08559 35.8027 4.2231C42.9568 8.16644 45.9761 16.5338 43.3861 23.9165C44.1841 26.0351 44.8094 28.2238 45.2668 30.3938C47.1288 28.4152 49.3034 26.6138 51.7954 25.0925C50.3581 19.4598 52.7521 13.3511 58.0675 10.3784C72.8188 2.12776 88.6669 11.6665 88.6669 11.6665C85.2042 20.3605 79.0908 28.7418 70.8961 33.3245C66.4301 35.8212 61.1568 35.3825 57.1808 32.7178C49.9428 36.8198 46.6668 44.3472 46.6668 46.6665H37.3334C37.3334 39.2885 36.5774 33.9265 35.4714 29.9038C34.0434 26.0258 29.9414 20.1225 29.8667 20.0665L29.8994 20.0245C22.1107 10.6444 11.6667 9.33311 11.6667 9.33311C21.8354 20.9531 25.6667 25.6665 27.8647 34.9252C25.0414 34.9625 22.1807 34.3605 19.5394 32.9045C9.15135 27.1785 4.66668 13.9998 0 5.72111ZM108.43 60.7412L62.7575 112H14C6.28135 112 0 105.719 0 98V65.3332C0 57.6145 6.28135 51.3332 14 51.3332H59.9995C65.3148 51.3332 69.9815 54.1752 72.5481 58.4219L87.5609 41.9298C90.0809 39.1532 93.5389 37.5245 97.2909 37.3518C101.08 37.1698 104.636 38.4718 107.413 41.0012C113.078 46.1672 113.536 55.0245 108.43 60.7412ZM101.127 47.8985C100.198 47.0539 98.9942 46.6339 97.7295 46.6759C96.4695 46.7365 95.3075 47.2779 94.4675 48.2112L73.8082 70.9099C72.0115 75.9033 67.5595 79.7346 62.0761 80.5186L37.9914 83.9579L36.6707 74.7179L60.7555 71.2786C63.3688 70.9099 65.3288 68.6419 65.3288 66.0052C65.3288 63.0652 62.9348 60.6712 59.9948 60.6712H14C11.424 60.6712 9.33335 62.7619 9.33335 65.3379V98.0046C9.33335 100.581 11.424 102.671 14 102.671H58.5761L101.463 54.5299C103.18 52.6072 103.026 49.6345 101.127 47.8985Z" fill="#6D906B"/>
</svg>
